<svg width="40" height="40" viewBox="0 0 40 40" fill="none" xmlns="http://www.w3.org/2000/svg">
<path d="M19.9999 5.00008C28.2842 5.00008 34.9999 11.7158 34.9999 20.0001C34.9999 28.2844 28.2842 35.0001 19.9999 35.0001C11.7156 35.0001 4.99992 28.2844 4.99992 20.0001C4.99992 11.7158 11.7156 5.00008 19.9999 5.00008ZM38.3333 20.0001C38.3333 9.87486 30.1251 1.66675 19.9999 1.66675C9.8747 1.66675 1.66659 9.87486 1.66659 20.0001C1.66659 30.1253 9.8747 38.3334 19.9999 38.3334C30.1251 38.3334 38.3333 30.1253 38.3333 20.0001ZM26.1784 22.8453L21.1784 27.8453C20.5276 28.4961 19.4723 28.4961 18.8214 27.8453L13.8214 22.8453C13.1705 22.1944 13.1705 21.1391 13.8214 20.4882C14.4723 19.8374 15.5276 19.8374 16.1784 20.4882L18.3333 22.6431V13.3334C18.3333 12.4129 19.0794 11.6667 19.9999 11.6667C20.9204 11.6667 21.6666 12.4129 21.6666 13.3334V22.6431L23.8214 20.4882C24.4723 19.8374 25.5276 19.8374 26.1784 20.4882C26.8293 21.1391 26.8293 22.1944 26.1784 22.8453Z" fill="#572811"/>
</svg>
