<svg width="40" height="40" viewBox="0 0 40 40" fill="none" xmlns="http://www.w3.org/2000/svg">
<path d="M4.99999 20C4.99999 11.7157 11.7157 4.99996 20 4.99996C28.2843 4.99996 35 11.7157 35 20C35 28.2842 28.2843 35 20 35C11.7157 35 4.99999 28.2842 4.99999 20ZM20 1.66663C9.87477 1.66663 1.66666 9.87474 1.66666 20C1.66666 30.1252 9.87477 38.3333 20 38.3333C30.1252 38.3333 38.3333 30.1252 38.3333 20C38.3333 9.87474 30.1252 1.66663 20 1.66663ZM22.8452 13.8214L27.8452 18.8214C28.496 19.4723 28.496 20.5276 27.8452 21.1785L22.8452 26.1785C22.1943 26.8293 21.139 26.8293 20.4881 26.1785C19.8373 25.5276 19.8373 24.4723 20.4881 23.8214L22.643 21.6666H13.3333C12.4128 21.6666 11.6667 20.9204 11.6667 20C11.6667 19.0795 12.4128 18.3333 13.3333 18.3333H22.643L20.4881 16.1785C19.8373 15.5276 19.8373 14.4723 20.4881 13.8214C21.139 13.1706 22.1943 13.1706 22.8452 13.8214Z" fill="#572811"/>
</svg>
