<svg width="40" height="40" viewBox="0 0 40 40" fill="none" xmlns="http://www.w3.org/2000/svg">
<path d="M20.0001 34.9999C11.7158 34.9999 5.00008 28.2842 5.00008 19.9999C5.00008 11.7156 11.7158 4.99992 20.0001 4.99992C28.2844 4.99992 35.0001 11.7156 35.0001 19.9999C35.0001 28.2842 28.2844 34.9999 20.0001 34.9999ZM1.66675 19.9999C1.66675 30.1251 9.87486 38.3333 20.0001 38.3333C30.1253 38.3333 38.3334 30.1251 38.3334 19.9999C38.3334 9.8747 30.1253 1.66659 20.0001 1.66659C9.87486 1.66659 1.66675 9.8747 1.66675 19.9999ZM13.8216 17.1547L18.8216 12.1547C19.4724 11.5039 20.5277 11.5039 21.1786 12.1547L26.1786 17.1547C26.8295 17.8056 26.8295 18.8609 26.1786 19.5118C25.5277 20.1626 24.4724 20.1626 23.8216 19.5118L21.6667 17.3569V26.6666C21.6667 27.5871 20.9206 28.3333 20.0001 28.3333C19.0796 28.3333 18.3334 27.5871 18.3334 26.6666V17.3569L16.1786 19.5118C15.5277 20.1626 14.4724 20.1626 13.8216 19.5118C13.1707 18.8609 13.1707 17.8056 13.8216 17.1547Z" fill="#572811"/>
</svg>
