<svg width="40" height="40" viewBox="0 0 40 40" fill="none" xmlns="http://www.w3.org/2000/svg">
<path d="M35 20C35 28.2843 28.2843 35 20 35C11.7158 35 5.00005 28.2843 5.00005 20C5.00005 11.7158 11.7158 5.00005 20 5.00005C28.2843 5.00005 35 11.7158 35 20ZM20 38.3334C30.1253 38.3334 38.3334 30.1253 38.3334 20C38.3334 9.87482 30.1253 1.66671 20 1.66671C9.87482 1.66671 1.66671 9.87482 1.66671 20C1.66671 30.1253 9.87482 38.3334 20 38.3334ZM17.1549 26.1786L12.1549 21.1786C11.504 20.5277 11.504 19.4724 12.1549 18.8215L17.1549 13.8215C17.8057 13.1707 18.861 13.1707 19.5119 13.8215C20.1628 14.4724 20.1628 15.5277 19.5119 16.1786L17.3571 18.3334L26.6667 18.3334C27.5872 18.3334 28.3334 19.0796 28.3334 20C28.3334 20.9205 27.5872 21.6667 26.6667 21.6667L17.3571 21.6667L19.5119 23.8215C20.1628 24.4724 20.1628 25.5277 19.5119 26.1786C18.861 26.8294 17.8057 26.8294 17.1549 26.1786Z" fill="#572811"/>
</svg>
