<svg width="8" height="11" viewBox="0 0 8 11" fill="none" xmlns="http://www.w3.org/2000/svg">
<path d="M0 11H8V9.03571C7.99915 8.30662 7.70388 7.60763 7.17896 7.09208C6.65405 6.57654 5.94235 6.28654 5.2 6.28571H2.8C2.05765 6.28654 1.34595 6.57654 0.821037 7.09208C0.296118 7.60763 0.000846945 8.30662 0 9.03571V11Z" fill="#403A4B" fill-opacity="0.6"/>
<path d="M1.19995 2.75C1.19995 3.2939 1.36417 3.82559 1.67184 4.27782C1.9795 4.73006 2.4168 5.08253 2.92844 5.29068C3.44007 5.49882 4.00306 5.55328 4.5462 5.44717C5.08935 5.34106 5.58826 5.07914 5.97985 4.69455C6.37144 4.30995 6.63811 3.81995 6.74615 3.2865C6.85419 2.75305 6.79874 2.20012 6.58681 1.69762C6.37489 1.19513 6.01601 0.765633 5.55555 0.463459C5.09509 0.161285 4.55374 0 3.99995 0C3.25734 0 2.54515 0.289732 2.02005 0.805457C1.49495 1.32118 1.19995 2.02066 1.19995 2.75Z" fill="#403A4B" fill-opacity="0.6"/>
</svg>
