<svg width="21" height="20" viewBox="0 0 21 20" fill="none" xmlns="http://www.w3.org/2000/svg">
<path fill-rule="evenodd" clip-rule="evenodd" d="M7.88839 0.960449H14.0281C19.6315 0.960449 20.9583 2.22086 20.9583 7.54408V13.3768C20.9583 18.7 19.6315 19.9604 14.0281 19.9604H7.88839C2.285 19.9604 0.958252 18.7 0.958252 13.3768V7.54408C0.958252 2.22086 2.285 0.960449 7.88839 0.960449Z" fill="#4680C2"/>
<path fill-rule="evenodd" clip-rule="evenodd" d="M17.331 7.50377C17.4298 7.20878 17.331 6.99424 16.8935 6.99424H15.4397C15.0727 6.99424 14.9034 7.18196 14.8046 7.38309C14.8046 7.38309 14.0565 9.09939 13.0121 10.2123C12.6733 10.5341 12.5181 10.6414 12.3346 10.6414C12.2358 10.6414 12.1087 10.5341 12.1087 10.2391V7.49036C12.1087 7.14174 11.9958 6.98083 11.6853 6.98083H9.39878C9.17295 6.98083 9.03181 7.14174 9.03181 7.30264C9.03181 7.63786 9.55404 7.71831 9.6105 8.65691V10.695C9.6105 11.1375 9.52581 11.218 9.34233 11.218C8.84833 11.218 7.64861 9.48825 6.92878 7.51718C6.78763 7.12833 6.64649 6.98083 6.27952 6.98083H4.81163C4.3882 6.98083 4.31763 7.16855 4.31763 7.36968C4.31763 7.73172 4.81163 9.55529 6.61826 11.9688C7.81798 13.6181 9.52581 14.5031 11.0643 14.5031C11.9958 14.5031 12.1087 14.3019 12.1087 13.9667V12.7197C12.1087 12.3175 12.1934 12.2504 12.4898 12.2504C12.7015 12.2504 13.0826 12.3577 13.9436 13.1488C14.9316 14.0874 15.101 14.5165 15.6514 14.5165H17.1052C17.5286 14.5165 17.7262 14.3153 17.6133 13.9265C17.4863 13.5376 17.0064 12.9745 16.3854 12.3041C16.0466 11.9286 15.5385 11.5129 15.3833 11.3118C15.1715 11.0436 15.228 10.9364 15.3833 10.695C15.3691 10.695 17.1475 8.30829 17.331 7.50377Z" fill="white"/>
</svg>
